Coordinates
version=1
nRows=4
nColumns=114
inDegrees=yes

Units are S.I. units (second, meters, Newtons, ...)
If the header above contains a line with 'inDegrees', this indicates whether rotational values are in degrees (yes) or radians (no).

endheader 
time	pelvis_tilt	pelvis_list	pelvis_rotation	pelvis_tx	pelvis_ty	pelvis_tz	hip_flexion_l	hip_adduction_l	hip_rotation_l	hip_flexion_r	hip_adduction_r	hip_rotation_r	knee_angle_l	knee_angle_r	ankle_angle_l	ankle_angle_r	subtalar_angle_l	subtalar_angle_r	mtp_angle_l	mtp_angle_r	lumbar_extension	lumbar_bending	lumbar_rotation	arm_flex_l	arm_add_l	arm_rot_l	arm_flex_r	arm_add_r	arm_rot_r	elbow_flex_l	elbow_flex_r	pro_sup_l	pro_sup_r	addbrev_l/activation	addlong_l/activation	addmagDist_l/activation	addmagIsch_l/activation	addmagMid_l/activation	addmagProx_l/activation	bflh_l/activation	bfsh_l/activation	edl_l/activation	ehl_l/activation	fdl_l/activation	fhl_l/activation	gaslat_l/activation	gasmed_l/activation	glmax1_l/activation	glmax2_l/activation	glmax3_l/activation	glmed1_l/activation	glmed2_l/activation	glmed3_l/activation	glmin1_l/activation	glmin2_l/activation	glmin3_l/activation	grac_l/activation	iliacus_l/activation	perbrev_l/activation	perlong_l/activation	piri_l/activation	psoas_l/activation	recfem_l/activation	sart_l/activation	semimem_l/activation	semiten_l/activation	soleus_l/activation	tfl_l/activation	tibant_l/activation	tibpost_l/activation	vasint_l/activation	vaslat_l/activation	vasmed_l/activation	addbrev_r/activation	addlong_r/activation	addmagDist_r/activation	addmagIsch_r/activation	addmagMid_r/activation	addmagProx_r/activation	bflh_r/activation	bfsh_r/activation	edl_r/activation	ehl_r/activation	fdl_r/activation	fhl_r/activation	gaslat_r/activation	gasmed_r/activation	glmax1_r/activation	glmax2_r/activation	glmax3_r/activation	glmed1_r/activation	glmed2_r/activation	glmed3_r/activation	glmin1_r/activation	glmin2_r/activation	glmin3_r/activation	grac_r/activation	iliacus_r/activation	perbrev_r/activation	perlong_r/activation	piri_r/activation	psoas_r/activation	recfem_r/activation	sart_r/activation	semimem_r/activation	semiten_r/activation	soleus_r/activation	tfl_r/activation	tibant_r/activation	tibpost_r/activation	vasint_r/activation	vaslat_r/activation	vasmed_r/activation
          0.97000000	         -8.60497566	         -8.91154334	        -52.06798092	          1.31875422	          0.86154663	          0.17481794	         20.22276250	         -5.89327955	          1.19241633	         52.78207961	          1.44289376	        -28.55186498	         52.70234498	        116.78161402	         29.65678774	         -9.32451562	        -23.08965407	        -32.09500148	        -10.45820013	         -0.05911621	        -16.26281408	          0.89733599	         11.25733147	        -14.78651683	        -34.76049933	        -20.18841181	         18.95168129	        -46.06668066	         11.55199860	         34.41525049	         54.13452277	        107.48242674	        106.62708890	          0.01410041	          0.01807497	          0.01531198	          0.08286018	          0.01270107	          0.01231353	          0.01078417	          0.01898729	          0.02275098	          0.02242706	          0.03489791	          0.05346197	          0.08432865	          0.11436003	          0.01697214	          0.01407256	          0.01086886	          0.59229264	          0.26722892	          0.07519416	          0.21043085	          0.14076332	          0.07882573	          0.01265302	          0.07966982	          0.01610477	          0.01630490	          0.01120847	          0.01490703	          0.12225787	          0.01604992	          0.02339129	          0.01641429	          0.48275743	          0.12900302	          0.04844256	          0.10439390	          0.16189976	          0.41791316	          0.20917394	          0.01028583	          0.01039277	          0.01019590	          0.01024872	          0.01021697	          0.01173949	          0.15734973	          0.41095086	          0.05833244	          0.03138079	          0.02130226	          0.01657029	          0.06295883	          0.08416987	          0.01041907	          0.01026634	          0.01017752	          0.01047782	          0.01163977	          0.01885264	          0.01095235	          0.01240796	          0.02621973	          0.01156290	          0.22730809	          0.03706281	          0.05462256	          0.43732582	          0.51634177	          0.01524638	          0.84315378	          0.01048213	          0.01073742	          0.01062866	          0.11941044	          0.04924888	          0.01442995	          0.01014762	          0.01005581	          0.01010634	
          0.98000000	         -8.71094003	         -8.33036664	        -51.96533999	          1.31685141	          0.85802653	          0.17417995	         21.45038370	         -5.60299383	          1.27836945	         53.68843548	          1.16230621	        -28.38248657	         53.65235942	        116.93525960	         29.76195427	         -9.29077957	        -23.23183299	        -32.17636887	        -10.65087401	         -0.04339311	        -16.06091358	          0.34613263	         11.37376910	        -15.10532596	        -34.83570744	        -21.87116868	         19.12725787	        -46.50062438	         11.48050744	         34.84209393	         53.67814397	        106.89551840	        105.88328468	          0.01297003	          0.01542747	          0.01316499	          0.06928361	          0.01158611	          0.01208826	          0.01033543	          0.01866981	          0.02108510	          0.02040573	          0.03324057	          0.04956910	          0.07163329	          0.09637493	          0.01616564	          0.01245898	          0.01050332	          0.52933343	          0.26130573	          0.13474745	          0.19112705	          0.14635721	          0.10198150	          0.01214267	          0.07544181	          0.01656014	          0.01518693	          0.01379169	          0.01692279	          0.10215784	          0.01990659	          0.01958065	          0.01397591	          0.46597035	          0.11294654	          0.04072431	          0.10636008	          0.16404556	          0.41641440	          0.21181357	          0.01026791	          0.01036346	          0.01019004	          0.01024467	          0.01020815	          0.01163004	          0.13189614	          0.39588196	          0.06062529	          0.03203676	          0.02081151	          0.01579882	          0.06134160	          0.08086187	          0.01038201	          0.01024490	          0.01017345	          0.01037037	          0.01125532	          0.01738634	          0.01074033	          0.01171506	          0.02388039	          0.01111074	          0.20163690	          0.03993348	          0.05696487	          0.44414410	          0.49211136	          0.03661064	          0.87482837	          0.01030144	          0.01056461	          0.01047978	          0.13727520	          0.05233151	          0.01370341	          0.01015042	          0.01005683	          0.01010831	
          0.99000000	         -8.76592282	         -7.86679747	        -51.88300100	          1.31478227	          0.85485427	          0.17344645	         22.53673693	         -5.36052790	          1.33567762	         54.47861951	          0.96115162	        -28.18845516	         54.57253695	        117.06263549	         29.81787073	         -9.25802201	        -23.40813248	        -32.26973524	        -10.82775430	         -0.02539616	        -16.06144133	         -0.17827439	         11.37819646	        -15.56775646	        -34.78891491	        -23.90730808	         19.97185884	        -46.80651069	         11.78731105	         35.25935494	         53.11413038	        106.31664047	        104.84952482	          0.01279345	          0.01346461	          0.01282819	          0.05906060	          0.01202820	          0.01226188	          0.01078093	          0.01874674	          0.02387980	          0.02322126	          0.03574528	          0.05382402	          0.06428929	          0.08405585	          0.02295790	          0.01548545	          0.01098282	          0.49473068	          0.24523856	          0.12540418	          0.17110615	          0.12802673	          0.08868836	          0.01251172	          0.06372398	          0.01520342	          0.01342375	          0.01303804	          0.01514170	          0.08529287	          0.01798910	          0.01694473	          0.01309492	          0.47022195	          0.09829849	          0.03728811	          0.11766902	          0.15254469	          0.39003035	          0.19691879	          0.01026441	          0.01036597	          0.01020295	          0.01027526	          0.01021290	          0.01148959	          0.12178543	          0.37189679	          0.06016997	          0.03198098	          0.02090940	          0.01586848	          0.05927254	          0.07762886	          0.01046523	          0.01030613	          0.01019020	          0.01044235	          0.01156142	          0.01944976	          0.01083424	          0.01193119	          0.02432977	          0.01102604	          0.17205973	          0.03932560	          0.05603015	          0.44187223	          0.41704693	          0.03201395	          0.81561418	          0.01035520	          0.01061865	          0.01052352	          0.13610879	          0.05179856	          0.01371107	          0.01016137	          0.01006091	          0.01011614	
          1.00000000	         -8.77228631	         -7.47522107	        -51.80060055	          1.31253323	          0.85189335	          0.17252257	         23.55102649	         -5.12153000	          1.40078249	         55.22933764	          0.78510356	        -27.95490819	         55.51019975	        117.18594844	         29.88684667	         -9.17778622	        -23.57633881	        -32.36055523	        -10.93788070	         -0.01342555	        -16.23343222	         -0.70283255	         11.34928138	        -15.92449040	        -34.81161472	        -25.61072017	         21.16833913	        -47.13015336	         12.25629906	         35.62315199	         52.59884011	        105.29440688	        103.28068478	          0.01308855	          0.01246767	          0.01798763	          0.10972819	          0.01280377	          0.01242957	          0.01146498	          0.01920482	          0.02508559	          0.02432392	          0.03847059	          0.05906059	          0.05970565	          0.07488460	          0.03154702	          0.03516460	          0.01163474	          0.50209810	          0.24797449	          0.12525175	          0.17092707	          0.12066772	          0.08016773	          0.01299964	          0.05395593	          0.01378187	          0.01195747	          0.01245861	          0.01362636	          0.07122291	          0.01621776	          0.05441688	          0.02006124	          0.47626519	          0.08604758	          0.04553685	          0.12473663	          0.13457881	          0.35851199	          0.17369815	          0.01026060	          0.01036774	          0.01021178	          0.01029835	          0.01021430	          0.01138910	          0.12601763	          0.35271463	          0.05694368	          0.03167062	          0.02114169	          0.01606616	          0.05751065	          0.07489781	          0.01054958	          0.01036895	          0.01020332	          0.01050685	          0.01188794	          0.02156506	          0.01093002	          0.01224020	          0.02503506	          0.01098870	          0.14788828	          0.03855051	          0.05322846	          0.43104149	          0.36137366	          0.02973094	          0.77346929	          0.01037849	          0.01065790	          0.01051656	          0.12522038	          0.04943963	          0.01391433	          0.01017129	          0.01006462	          0.01012327	
